<svg width="351" height="36" viewBox="0 0 351 36" fill="none" xmlns="http://www.w3.org/2000/svg">
<g style="mix-blend-mode:luminosity" clip-path="url(#clip0_3_4)">
<path d="M14.9521 2.00861C14.8833 2.01487 14.6644 2.03676 14.4673 2.0524C9.92216 2.46211 5.66491 4.91415 2.96853 8.6829C1.46706 10.7784 0.506748 13.1554 0.143891 15.6731C0.01564 16.5519 0 16.8115 0 18.0031C0 19.1947 0.01564 19.4543 0.143891 20.3332C1.01349 26.3413 5.28954 31.3892 11.089 33.2595C12.1275 33.5942 13.2223 33.8225 14.4673 33.9601C14.9521 34.0133 17.0479 34.0133 17.5328 33.9601C19.6818 33.7224 21.5023 33.1907 23.2978 32.2743C23.5731 32.1336 23.6262 32.0961 23.5887 32.0648C23.5637 32.046 22.3907 30.4729 20.983 28.5713L18.4243 25.1153L15.218 20.3707C13.4538 17.7623 12.0024 15.6293 11.9899 15.6293C11.9774 15.6262 11.9649 17.7342 11.9586 20.3082C11.9492 24.815 11.9461 24.9964 11.8898 25.1028C11.8084 25.256 11.7459 25.3186 11.6145 25.3874C11.5144 25.4374 11.4268 25.4468 10.9545 25.4468H10.4133L10.2694 25.3561C10.1756 25.2967 10.1068 25.2185 10.0599 25.1278L9.99416 24.9871L10.0004 18.7162L10.0098 12.4423L10.1068 12.3203C10.1568 12.2546 10.2632 12.1702 10.3383 12.1295C10.4665 12.067 10.5166 12.0607 11.0577 12.0607C11.6958 12.0607 11.8022 12.0857 11.968 12.2671C12.0149 12.3172 13.751 14.9318 15.828 18.0813C17.905 21.2308 20.7453 25.5313 22.1404 27.6424L24.6741 31.4799L24.8024 31.3955C25.9379 30.6574 27.139 29.6065 28.09 28.5119C30.1138 26.188 31.4182 23.3544 31.8562 20.3332C31.9844 19.4543 32 19.1947 32 18.0031C32 16.8115 31.9844 16.5519 31.8562 15.6731C30.9866 9.66497 26.7105 4.61703 20.9111 2.74673C19.8882 2.4152 18.7997 2.18689 17.5797 2.04927C17.2794 2.018 15.2118 1.98359 14.9521 2.00861ZM21.5023 11.6854C21.6524 11.7605 21.7744 11.9043 21.8182 12.0544C21.8432 12.1358 21.8495 13.8747 21.8432 17.7936L21.8339 23.417L20.8423 21.897L19.8475 20.377V16.2892C19.8475 13.6464 19.8601 12.1608 19.8788 12.0889C19.9289 11.9137 20.0384 11.7761 20.1885 11.6948C20.3168 11.6291 20.3637 11.6228 20.8548 11.6228C21.3177 11.6228 21.3991 11.6291 21.5023 11.6854Z" fill="#666666"/>
<mask id="mask0_3_4" style="mask-type:alpha" maskUnits="userSpaceOnUse" x="64" y="2" width="32" height="32">
<circle cx="80" cy="18" r="16" fill="black"/>
</mask>
<g mask="url(#mask0_3_4)">
<g clip-path="url(#clip1_3_4)">
<path d="M79.9999 21.0876C81.5752 21.0876 82.8521 19.8106 82.8521 18.2354C82.8521 16.6602 81.5752 15.3832 79.9999 15.3832C78.4247 15.3832 77.1478 16.6602 77.1478 18.2354C77.1478 19.8106 78.4247 21.0876 79.9999 21.0876Z" fill="black"/>
<path d="M80.0001 24.0788C88.4524 24.0788 95.3044 21.4626 95.3044 18.2353C95.3044 15.0081 88.4524 12.3918 80.0001 12.3918C71.5477 12.3918 64.6957 15.0081 64.6957 18.2353C64.6957 21.4626 71.5477 24.0788 80.0001 24.0788Z" stroke="black"/>
<path d="M74.9394 21.1572C79.1656 28.4771 84.8573 33.103 87.6522 31.4894C90.4471 29.8757 89.2868 22.6336 85.0606 15.3137C80.8344 7.99372 75.1427 3.36783 72.3478 4.98146C69.553 6.59509 70.7132 13.8372 74.9394 21.1572Z" stroke="black"/>
<path d="M74.9393 15.3137C70.7131 22.6337 69.5529 29.8758 72.3478 31.4894C75.1427 33.103 80.8344 28.4771 85.0605 21.1572C89.2867 13.8372 90.447 6.59512 87.6521 4.98149C84.8572 3.36786 79.1655 7.99375 74.9393 15.3137Z" stroke="black"/>
</g>
</g>
<g clip-path="url(#clip2_3_4)">
<path d="M152.895 6.2305C149.939 1.97287 144.054 0.725416 139.824 3.41016L132.366 8.18304C130.332 9.45762 128.922 11.5458 128.515 13.9051C128.163 15.8847 128.461 17.9186 129.41 19.6813C128.759 20.6576 128.325 21.7424 128.136 22.8813C127.702 25.2949 128.271 27.7898 129.681 29.7695C132.664 34.0271 138.522 35.2746 142.753 32.5898L150.21 27.8441C152.244 26.5695 153.654 24.4813 154.061 22.122C154.414 20.1424 154.115 18.1085 153.166 16.3458C153.817 15.3695 154.251 14.2847 154.441 13.1458C154.902 10.7051 154.332 8.21016 152.895 6.2305Z" fill="#FF3E00"/>
<path d="M139.091 30.1763C136.678 30.8 134.156 29.8508 132.746 27.8169C131.878 26.6237 131.552 25.1322 131.796 23.6678C131.851 23.4237 131.905 23.2068 131.959 22.9627L132.095 22.5288L132.474 22.8C133.369 23.4508 134.346 23.939 135.403 24.2644L135.674 24.3457L135.647 24.6169C135.62 24.9966 135.729 25.4034 135.946 25.7288C136.38 26.3525 137.139 26.6508 137.871 26.461C138.034 26.4068 138.196 26.3525 138.332 26.2712L145.763 21.5254C146.142 21.2813 146.386 20.9288 146.468 20.4949C146.549 20.061 146.441 19.6 146.196 19.2474C145.763 18.6237 145.003 18.3525 144.271 18.5424C144.108 18.5966 143.946 18.6508 143.81 18.7322L140.963 20.5491C140.502 20.8474 139.986 21.0644 139.444 21.2C137.03 21.8237 134.508 20.8746 133.098 18.8407C132.257 17.6474 131.905 16.1559 132.176 14.6915C132.42 13.2813 133.288 12.0068 134.508 11.2474L141.966 6.50168C142.427 6.20338 142.942 5.98643 143.485 5.82371C145.898 5.19999 148.42 6.14914 149.83 8.18304C150.698 9.37626 151.024 10.8678 150.78 12.3322C150.725 12.5763 150.671 12.7932 150.59 13.0373L150.454 13.4712L150.074 13.2C149.18 12.5491 148.203 12.061 147.146 11.7356L146.874 11.6542L146.902 11.383C146.929 11.0034 146.82 10.5966 146.603 10.2712C146.169 9.64744 145.41 9.37626 144.678 9.56609C144.515 9.62032 144.352 9.67456 144.217 9.75592L136.786 14.5017C136.407 14.7457 136.163 15.0983 136.081 15.5322C136 15.9661 136.108 16.4271 136.352 16.7796C136.786 17.4034 137.546 17.6746 138.278 17.4847C138.441 17.4305 138.603 17.3763 138.739 17.2949L141.586 15.478C142.047 15.1796 142.563 14.9627 143.105 14.8C145.518 14.1763 148.041 15.1254 149.451 17.1593C150.318 18.3525 150.644 19.8441 150.4 21.3085C150.156 22.7186 149.288 23.9932 148.068 24.7525L140.61 29.4983C140.149 29.7966 139.634 30.0135 139.091 30.1763Z" fill="white"/>
</g>
<g clip-path="url(#clip3_3_4)">
<path d="M206.297 4.00012L202.602 10.4662L198.907 4.00025H186.603L202.602 32L218.602 4L206.297 4.00012Z" fill="#666666"/>
<path d="M206.297 4.00012L202.602 10.4662L198.907 4.00025H193.003L202.602 20.7998L212.202 4.00012H206.297Z" fill="black"/>
</g>
<g clip-path="url(#clip4_3_4)">
<path d="M270.8 30.1641H284.182C284.607 30.1641 285.025 30.0517 285.393 29.8382C285.761 29.6246 286.067 29.3175 286.279 28.9476C286.492 28.5777 286.604 28.1582 286.603 27.7311C286.603 27.3041 286.491 26.8846 286.278 26.5149L277.291 10.8754C277.078 10.5057 276.773 10.1985 276.405 9.98508C276.037 9.77154 275.619 9.65918 275.194 9.65918C274.769 9.65918 274.352 9.77154 273.984 9.98508C273.616 10.1985 273.31 10.5057 273.098 10.8754L270.8 14.8771L266.307 7.05206C266.094 6.6823 265.788 6.37526 265.42 6.16179C265.052 5.94832 264.634 5.83594 264.209 5.83594C263.784 5.83594 263.367 5.94832 262.999 6.16179C262.63 6.37526 262.325 6.6823 262.112 7.05206L250.928 26.5149C250.716 26.8846 250.604 27.3041 250.603 27.7311C250.603 28.1582 250.715 28.5777 250.927 28.9476C251.14 29.3175 251.445 29.6246 251.814 29.8382C252.182 30.0517 252.599 30.1641 253.024 30.1641H261.425C264.753 30.1641 267.208 28.6952 268.897 25.8296L272.997 18.6952L275.194 14.8771L281.785 26.3459H272.997L270.8 30.1641ZM261.294 26.3407H255.425L264.213 11.0497L268.598 18.6952L265.662 23.8053C264.541 25.6646 263.266 26.3419 261.288 26.3419" fill="#00DC82"/>
</g>
<g clip-path="url(#clip5_3_4)">
<path d="M347.175 18H339.175V20.2857H344.661C343.861 23.7143 341.346 26.5714 338.032 27.7143L324.889 14.5714C326.261 10.5714 330.146 7.71427 334.603 7.71427C338.032 7.71427 341.118 9.42856 343.061 12.0571L344.775 10.5714C342.489 7.4857 338.832 5.42856 334.603 5.42856C328.661 5.42856 323.632 9.65713 322.375 15.2571L337.461 30.3428C342.946 28.9714 347.175 23.9428 347.175 18ZM322.032 18.1143C322.032 21.3143 323.289 24.4 325.689 26.8C328.089 29.2 331.289 30.4571 334.375 30.4571L322.032 18.1143Z" fill="white"/>
<path d="M334.603 2C325.803 2 318.603 9.2 318.603 18C318.603 26.8 325.803 34 334.603 34C343.403 34 350.603 26.8 350.603 18C350.603 9.2 343.403 2 334.603 2ZM325.689 26.9143C323.289 24.5143 322.032 21.3143 322.032 18.2286L334.489 30.5714C331.289 30.4571 328.089 29.3143 325.689 26.9143ZM337.346 30.2286L322.375 15.2571C323.632 9.65714 328.66 5.42857 334.603 5.42857C338.832 5.42857 342.489 7.48571 344.775 10.5714L343.06 12.0571C341.118 9.42857 338.032 7.71429 334.603 7.71429C330.146 7.71429 326.375 10.5714 324.889 14.5714L338.032 27.7143C341.346 26.5714 343.86 23.7143 344.66 20.2857H339.175V18H347.175C347.175 23.9429 342.946 28.9714 337.346 30.2286Z" fill="#666666"/>
</g>
</g>
<defs>
<clipPath id="clip0_3_4">
<rect width="350.603" height="36" fill="white"/>
</clipPath>
<clipPath id="clip1_3_4">
<rect width="32" height="28.4709" fill="white" transform="translate(64 4)"/>
</clipPath>
<clipPath id="clip2_3_4">
<rect width="26.6034" height="32" fill="white" transform="translate(128 2)"/>
</clipPath>
<clipPath id="clip3_3_4">
<rect width="32" height="28" fill="white" transform="translate(186.603 4)"/>
</clipPath>
<clipPath id="clip4_3_4">
<rect width="36" height="36" fill="white" transform="translate(250.603)"/>
</clipPath>
<clipPath id="clip5_3_4">
<rect width="32" height="32" fill="white" transform="translate(318.603 2)"/>
</clipPath>
</defs>
</svg>
